<?xml version="1.0" encoding="utf-8"?>
<!-- Generator: Adobe Illustrator 23.0.3, SVG Export Plug-In . SVG Version: 6.00 Build 0)  -->
<svg version="1.1" id="Layer_1" xmlns="http://www.w3.org/2000/svg" xmlns:xlink="http://www.w3.org/1999/xlink" x="0px" y="0px"
	 viewBox="0 0 387.9 387.9" style="enable-background:new 0 0 387.9 387.9;" xml:space="preserve">
<style type="text/css">
	.st0{fill:url(#SVGID_1_);}
	.st1{fill:url(#SVGID_2_);}
	.st2{fill:url(#SVGID_3_);}
	.st3{fill:url(#SVGID_4_);}
	.st4{fill:url(#SVGID_5_);}
	.st5{fill:url(#SVGID_6_);}
	.st6{fill:url(#SVGID_7_);}
	.st7{fill:url(#SVGID_8_);}
	.st8{fill:url(#SVGID_9_);}
	.st9{fill:url(#SVGID_10_);}
	.st10{fill:url(#SVGID_11_);}
	.st11{fill:url(#SVGID_12_);}
	.st12{fill:url(#SVGID_13_);}
	.st13{fill:url(#SVGID_14_);}
	.st14{fill:url(#SVGID_15_);}
	.st15{fill:url(#SVGID_16_);}
	.st16{fill:url(#SVGID_17_);}
	.st17{fill:url(#SVGID_18_);}
	.st18{fill:url(#SVGID_19_);}
	.st19{fill:url(#SVGID_20_);}
	.st20{fill:url(#SVGID_21_);}
	.st21{fill:url(#SVGID_22_);}
	.st22{fill:url(#SVGID_23_);}
	.st23{fill:url(#SVGID_24_);}
	.st24{fill:url(#SVGID_25_);}
	.st25{fill:url(#SVGID_26_);}
	.st26{fill:url(#SVGID_27_);}
	.st27{fill:url(#SVGID_28_);}
	.st28{fill:url(#SVGID_29_);}
	.st29{fill:url(#SVGID_30_);}
	.st30{fill:url(#SVGID_31_);}
	.st31{fill:url(#SVGID_32_);}
	.st32{fill:url(#SVGID_33_);}
	.st33{fill:url(#SVGID_34_);}
	.st34{fill:url(#SVGID_35_);}
	.st35{fill:url(#SVGID_36_);}
	.st36{fill:url(#SVGID_37_);}
	.st37{fill:url(#SVGID_38_);}
	.st38{fill:url(#SVGID_39_);}
	.st39{fill:url(#SVGID_40_);}
	.st40{fill:url(#SVGID_41_);}
	.st41{fill:url(#SVGID_42_);}
	.st42{fill:url(#SVGID_43_);}
	.st43{fill:url(#SVGID_44_);}
	.st44{fill:url(#SVGID_45_);}
	.st45{fill:url(#SVGID_46_);}
	.st46{fill:url(#SVGID_47_);}
	.st47{fill:url(#SVGID_48_);}
	.st48{fill:url(#SVGID_49_);}
	.st49{fill:url(#SVGID_50_);}
	.st50{fill:url(#SVGID_51_);}
	.st51{fill:url(#SVGID_52_);}
	.st52{fill:url(#SVGID_53_);}
	.st53{fill:url(#SVGID_54_);}
	.st54{fill:url(#SVGID_55_);}
	.st55{fill:url(#SVGID_56_);}
	.st56{fill:url(#SVGID_57_);}
	.st57{fill:url(#SVGID_58_);}
	.st58{fill:url(#SVGID_59_);}
	.st59{fill:url(#SVGID_60_);}
	.st60{fill:url(#SVGID_61_);}
	.st61{fill:url(#SVGID_62_);}
	.st62{fill:url(#SVGID_63_);}
	.st63{fill:url(#SVGID_64_);}
	.st64{fill:url(#SVGID_65_);}
	.st65{fill:url(#SVGID_66_);}
	.st66{fill:url(#SVGID_67_);}
	.st67{fill:url(#SVGID_68_);}
	.st68{fill:url(#SVGID_69_);}
	.st69{fill:url(#SVGID_70_);}
	.st70{fill:url(#SVGID_71_);}
	.st71{fill:url(#SVGID_72_);}
	.st72{fill:url(#SVGID_73_);}
	.st73{fill:url(#SVGID_74_);}
	.st74{fill:url(#SVGID_75_);}
	.st75{fill:url(#SVGID_76_);}
	.st76{fill:url(#SVGID_77_);}
	.st77{fill:url(#SVGID_78_);}
	.st78{fill:url(#SVGID_79_);}
	.st79{fill:url(#SVGID_80_);}
	.st80{fill:url(#SVGID_81_);}
	.st81{fill:url(#SVGID_82_);}
	.st82{fill:url(#SVGID_83_);}
	.st83{fill:url(#SVGID_84_);}
	.st84{fill:url(#SVGID_85_);}
	.st85{fill:url(#SVGID_86_);}
	.st86{fill:url(#SVGID_87_);}
	.st87{fill:url(#SVGID_88_);}
	.st88{fill:url(#SVGID_89_);}
	.st89{fill:url(#SVGID_90_);}
	.st90{fill:url(#SVGID_91_);}
	.st91{fill:url(#SVGID_92_);}
	.st92{fill:url(#SVGID_93_);}
	.st93{fill:url(#SVGID_94_);}
	.st94{fill:url(#SVGID_95_);}
	.st95{fill:url(#SVGID_96_);}
	.st96{fill:url(#SVGID_97_);}
	.st97{fill:url(#SVGID_98_);}
	.st98{fill:url(#SVGID_99_);}
	.st99{fill:url(#SVGID_100_);}
	.st100{fill:url(#SVGID_101_);}
	.st101{fill:url(#SVGID_102_);}
	.st102{fill:url(#SVGID_103_);}
	.st103{fill:url(#SVGID_104_);}
	.st104{fill:url(#SVGID_105_);}
	.st105{fill:url(#SVGID_106_);}
	.st106{fill:url(#SVGID_107_);}
	.st107{fill:url(#SVGID_108_);}
	.st108{fill:url(#SVGID_109_);}
	.st109{fill:url(#SVGID_110_);}
	.st110{fill:url(#SVGID_111_);}
	.st111{fill:url(#SVGID_112_);}
	.st112{fill:url(#SVGID_113_);}
	.st113{fill:url(#SVGID_114_);}
	.st114{fill:url(#SVGID_115_);}
	.st115{fill:url(#SVGID_116_);}
	.st116{fill:url(#SVGID_117_);}
	.st117{fill:url(#SVGID_118_);}
	.st118{fill:url(#SVGID_119_);}
	.st119{fill:url(#SVGID_120_);}
	.st120{fill:url(#SVGID_121_);}
	.st121{fill:url(#SVGID_122_);}
	.st122{fill:url(#SVGID_123_);}
	.st123{fill:url(#SVGID_124_);}
	.st124{fill:url(#SVGID_125_);}
	.st125{fill:url(#SVGID_126_);}
	.st126{fill:url(#SVGID_127_);}
	.st127{fill:url(#SVGID_128_);}
	.st128{fill:url(#SVGID_129_);}
	.st129{fill:url(#SVGID_130_);}
	.st130{fill:url(#SVGID_131_);}
	.st131{fill:url(#SVGID_132_);}
	.st132{fill:url(#SVGID_133_);}
	.st133{fill:url(#SVGID_134_);}
	.st134{fill:url(#SVGID_135_);}
	.st135{fill:url(#SVGID_136_);}
	.st136{fill:url(#SVGID_137_);}
	.st137{fill:url(#SVGID_138_);}
	.st138{fill:url(#SVGID_139_);}
	.st139{fill:url(#SVGID_140_);}
	.st140{fill:url(#SVGID_141_);}
	.st141{fill:url(#SVGID_142_);}
	.st142{fill:url(#SVGID_143_);}
	.st143{fill:url(#SVGID_144_);}
	.st144{fill:url(#SVGID_145_);}
	.st145{fill:url(#SVGID_146_);}
	.st146{fill:url(#SVGID_147_);}
	.st147{fill:url(#SVGID_148_);}
	.st148{fill:url(#SVGID_149_);}
	.st149{fill:url(#SVGID_150_);}
	.st150{fill:url(#SVGID_151_);}
	.st151{fill:url(#SVGID_152_);}
	.st152{fill:url(#SVGID_153_);}
	.st153{fill:url(#SVGID_154_);}
	.st154{fill:url(#SVGID_155_);}
	.st155{fill:url(#SVGID_156_);}
	.st156{fill:url(#SVGID_157_);}
	.st157{fill:url(#SVGID_158_);}
	.st158{fill:url(#SVGID_159_);}
	.st159{fill:url(#SVGID_160_);}
	.st160{fill:url(#SVGID_161_);}
	.st161{fill:url(#SVGID_162_);}
	.st162{fill:url(#SVGID_163_);}
	.st163{fill:url(#SVGID_164_);}
	.st164{fill:url(#SVGID_165_);}
	.st165{fill:url(#SVGID_166_);}
	.st166{fill:url(#SVGID_167_);}
	.st167{fill:url(#SVGID_168_);}
	.st168{fill:url(#SVGID_169_);}
	.st169{fill:url(#SVGID_170_);}
</style>
<g>
	<path d="M194.2,60.5c-74,0-133.7,59.4-133.8,133c-0.1,73.7,60.3,134.4,133.1,134c74.1-0.5,133.5-59.5,134-133.2
		C328,121,267.7,60.5,194.2,60.5z M141.5,253.7c-2.8,13.6-5.3,27.2-7.9,40.8c-39.7-21-61.1-68.4-57.7-110c0.2-2.9,1-4,4.4-4.6
		c2.8-0.5,4.9-0.9,6.1,1.6c3.8,8.2,11,9.9,19,11.7c5.8,1.3,10.8,10.1,16.2,13.2c2.8,2,5.6,1.8,8.4-0.1c0,5.2-0.4,5.3-3,10.6
		c-4.5,9.6,2.6,18,9.6,23.9C141.3,244.8,142.6,248.1,141.5,253.7z M272.8,281.7c-33.3,28.5-71.1,36.7-113.4,25.1
		c-6.5-1.8-14.9-5-14-10.8c1-6.5,3-16,10.9-18.8c5.9-2.1,8.8-6.9,13.1-10.3c6-4.9,8.5-12.5,16.7-16.7c5.9-3,5.8-14.5,10-21.7
		c1.8-3-2.6-5.3-5.1-5.6c-12.7-1.5-20.4-11.6-30.3-17.6c-10.3-6.3-19.9-7.4-30.7-3.2c-2.8,4.1-5.5,4.9-8.4,0.1
		c4.4-8.1-9.5-9.8-6.4-17.6c0.1-0.2-3.3-0.6-4.7,0.8c-4.3,4.6-8.1,3.3-9.8-1.8c-1.7-5-1.1-10.7,5.7-11.7c6.7-1,14.6-4.8,18.2,5.8
		c4.8-17.6,14.4-28.7,33-30.4c-4.1-1.5-6.7-4-10.3-9.3c5.6,5.2,12-1,15.3,5.7c0.2,0.4,2.2,0.3,3-0.2c2.3-1.3,0.1-2-0.5-3
		c-4.2-7.6-8-15.3-19-14.3c-2.1,0.2-4.1-2.1-5.1-4.5c-0.1,0-0.2,0-0.3-0.1c0,0,0,0,0,0c0-0.1,0-0.1-0.1-0.2c-4.8,0.9-14-3-9.3,8.5
		c-2.9,0.6-1.8,11.4-8.6,3c-1.9-2.3-6.7-2-10.1-3.3c-2.8-1-7.5-0.7-6.8-5.1c0.5-3.3,4.1-5,7.4-5.4c5.3-0.6,11.8,1.9,12.2-7.5
		c0.1-1.9,6.4-0.9,6,0c-4.6,10.6,7.8,5.1,9.1,9.7c0.1,0,0.1,0,0.2,0c0,0.1,0.1,0.2,0.1,0.3c6.2,2.1,9-4,14.8-5.5
		c-11-7.3-21.5-12.2-33.6-12.7c24.5-38.9,111.9-35.7,153.3,6c-4.4,4-8.4,8.3-14.1,10.6c-4.8,1.9-4.1,5.2-0.9,8.4
		c1.6,1.9,1.6,3.8,0,5.7c-1.4,0.9-2.8,1.8-4.2,2.7c-4.1,2.3-6.6-0.4-9.1-2.9c-2.2-2.1-4.4-3.7-7.3-0.6c0.3,4.7,8.8,1.6,7.6,7.7
		c-1.1,0-2.2,0-3.2,0.1c5.9,8.5,1.2,9-6.1,8.8c-4.3-0.1-3.7,5.7-2.9,6.7c6.8,8.8-1,12.5-5.3,17.9c-8.2,10.2-9.6,25.7,4.9,34.3
		c4.6,2.7,9.7,0.2,14.4-0.5c8.8-1.3,10.5,2.6,14.6,9.1c9.3,14.7,0.5,33.8,12.8,46.6C285.4,272.9,278.3,277,272.8,281.7z
		 M299.7,168.8c-8.8-1.9-17.5-0.4-26.2-0.6c-1.7,0-4.5-0.8-4.9-1.9c-3.9-11.5-13.1-5.1-20.2-6.1c5.9-10.9,9.1-9.7,20.2-8.3
		c7,0.9,10.6,2.4,13.9,7.5c0.2,0.3,0.6,0.4,0.9,0.6c5.7-9.6,10.2,4.1,15.8,0.9c1.5-0.8,4.8-0.7,4.8,2.5
		C304,166.2,302.4,169.4,299.7,168.8z"/>
	<path d="M229.6,88.9c-9.6,1-6.7,11.1-12.4,16c-4.7,4-9,6.6-14.9,8.3c-6.5,1.9-13,3.3-18.6,9.3c-5.4,5.6-13.3-1.1-14.8-6.6
		c-4.1-14.7-13.3-18.3-27.5-16.4c7.7-6.3,14.3-11.1,24.6-13.1c13.2-2.5,26.1-5.6,39.6-5.3c4.7,0.1,9.1-0.6,11.4,5.5
		C219.9,94.2,225,82.7,229.6,88.9z"/>
</g>
</svg>
